Coordinates
version=1
nRows=19
nColumns=36
inDegrees=yes

Units are S.I. units (second, meters, Newtons, ...)
If the header above contains a line with 'inDegrees', this indicates whether rotational values are in degrees (yes) or radians (no).

endheader
time	pelvis_tilt	pelvis_list	pelvis_rotation	pelvis_tx	pelvis_ty	pelvis_tz	hip_flexion_r	hip_adduction_r	hip_rotation_r	knee_angle_r	knee_angle_r_beta	ankle_angle_r	subtalar_angle_r	mtp_angle_r	hip_flexion_l	hip_adduction_l	hip_rotation_l	knee_angle_l	knee_angle_l_beta	ankle_angle_l	subtalar_angle_l	mtp_angle_l	lumbar_extension	lumbar_bending	lumbar_rotation	arm_flex_r	arm_add_r	arm_rot_r	elbow_flex_r	pro_sup_r	arm_flex_l	arm_add_l	arm_rot_l	elbow_flex_l	pro_sup_l
      0.00000000	      1.62307751	      0.22800826	      0.36182458	     -0.20214983	      1.24457700	      0.01187864	      5.33517820	     -0.76627682	     -2.92095055	     11.73893202	      0.20488301	     13.21269671	      6.41457534	     -6.15339548	      6.82991195	      1.21742760	     -6.72878208	     13.37435287	      0.23342649	      1.36012293	     -4.03626565	     -6.15339548	     -7.05585665	     -2.26187596	     -5.56691229	      1.60381968	     -9.87485589	     19.34038137	     23.66517388	     69.25605872	     -3.80806939	    -10.74110129	     17.08372234	     20.86231921	     63.42566328
      0.01666670	      0.93824738	      1.16357277	     -0.09328972	     -0.20245146	      1.24055925	      0.01233592	      5.79800218	     -1.82415763	     -2.59830230	     10.49676739	      0.18320315	     14.22496120	      8.76100147	     -6.50892990	      7.03396231	      2.13411181	     -9.37277773	     13.18840581	      0.23018110	      1.90169832	     -3.08514164	     -6.50892990	     -4.79715351	     -3.48782857	     -5.66875353	      2.46708617	     -9.47085426	     21.38615762	     20.26283649	     68.39962395	     -3.66391117	    -10.87696209	     21.29700287	     18.69830472	     63.88842379
      0.03333330	     -0.38019561	      1.75417900	     -0.99405238	     -0.20090860	      1.24116142	      0.01408342	      6.87086514	     -2.27700030	     -2.71648212	      9.79274433	      0.17091563	     14.36485378	      9.44018347	     -7.00818233	      8.32639089	      2.59577856	    -11.16451393	     13.20553561	      0.23048008	      1.54716112	     -2.64388019	     -7.00818233	     -2.75045895	     -4.40154959	     -4.64870965	      2.28884052	     -9.78007750	     26.07336925	     19.31263134	     61.56792219	     -3.56763662	    -11.52728940	     28.18991081	     17.58552001	     58.64427178
      0.05000000	     -0.55782939	      1.86847161	     -1.50397643	     -0.19842176	      1.24194955	      0.01430915	      6.90036721	     -2.35380193	     -2.80429173	      9.65108382	      0.16844319	     14.74506911	     10.33262455	     -7.09963164	      8.26870342	      2.62605408	    -12.15791612	     12.79548816	      0.22332340	      1.64135549	     -2.08504096	     -7.09963164	     -2.50227676	     -4.55652226	     -4.29863338	      2.62772148	     -9.99300581	     28.68831286	     18.65933310	     61.18015289	     -3.56636398	    -11.58840987	     30.81372229	     17.33183036	     58.26620712
      0.06666670	     -0.86302689	      2.02505509	     -1.72452024	     -0.19922884	      1.24406532	      0.01516416	      7.17196969	     -2.31813536	     -2.62974028	      9.68228239	      0.16898771	     15.03984695	     11.00182323	     -7.13113779	      8.50824230	      2.64599018	    -12.61925914	     12.65317348	      0.22083954	      1.36589922	     -1.94526849	     -7.13113779	     -2.35269856	     -4.72403701	     -4.01586731	      2.41389180	     -9.90318671	     28.77380551	     18.60040233	     60.91843294	     -3.49801896	    -11.47690875	     30.93583959	     17.54662317	     58.08818270
      0.08333330	     -1.09375009	      2.17077945	     -1.77371793	     -0.19608647	      1.23878054	      0.01464238	      7.37189498	     -2.45817745	     -2.63238275	      9.74701628	      0.17011753	     15.45278075	     11.62944775	     -7.15024174	      8.81441446	      2.71118253	    -12.83035480	     12.80906650	      0.22356038	      2.36943930	     -1.03127499	     -7.15024174	     -1.99783931	     -4.87285801	     -4.15883181	      2.39584147	     -9.64308741	     28.88270419	     18.27453853	     60.63803184	     -3.46199926	    -11.40711569	     31.50266088	     17.22024701	     57.66332615
      0.10000000	     -1.21121053	      2.27218959	     -1.72080025	     -0.19603908	      1.23825720	      0.01489677	      7.50412764	     -2.60903449	     -2.54674379	      9.86621077	      0.17219786	     15.68617949	     11.70210200	     -7.22551166	      8.93918612	      2.79170622	    -12.98646784	     12.89538293	      0.22506689	      2.80669589	     -0.66152462	     -7.22551166	     -1.83487494	     -4.91562331	     -4.04025769	      2.77018358	     -9.81043633	     32.72056139	     17.70749569	     59.69833571	     -2.93707030	    -11.61946115	     36.04515674	     16.81926177	     54.60151474
      0.11666670	     -1.20988641	      2.36497179	     -1.60615988	     -0.19564772	      1.23990110	      0.01526777	      7.50687556	     -2.69698031	     -2.43824406	      9.82845332	      0.17153887	     15.73605215	     11.98377257	     -7.24434155	      8.97494991	      2.89387505	    -13.01636749	     12.98216935	      0.22658160	      3.20862251	     -0.31944232	     -7.24434155	     -1.89146743	     -4.99329312	     -3.92976237	      2.71557889	     -9.67089852	     32.54317170	     17.74568934	     59.43186811	     -2.67413242	    -11.57960212	     35.87139596	     16.98570903	     54.23930970
      0.13333330	     -1.30890725	      2.43885618	     -1.39296181	     -0.19451045	      1.24064625	      0.01416761	      7.48153018	     -2.84736077	     -2.41879966	      9.80482819	      0.17112653	     15.79137319	     11.95020615	     -7.26108232	      9.03423467	      2.98900664	    -12.99287771	     12.98647792	      0.22665680	      3.19257494	     -0.05988949	     -7.26108232	     -1.68329636	     -5.03399599	     -3.84403442	      2.69565097	     -9.56248357	     32.59377927	     17.63414776	     59.40728103	     -2.36970548	    -11.48689248	     35.91345968	     16.81062751	     54.44476177
      0.15000000	     -1.26242554	      2.45045116	     -1.28550574	     -0.19500801	      1.24068646	      0.01404775	      7.38346385	     -2.91361202	     -2.21586919	      9.81515783	      0.17130682	     15.62841781	     11.97960455	     -7.27478639	      9.00316789	      3.00287425	    -13.03973985	     12.99975543	      0.22688853	      2.95015169	      0.08274952	     -7.27478639	     -1.71822370	     -5.03893184	     -3.90453366	      2.87908166	     -9.44672708	     32.67806750	     17.60070290	     59.42713023	     -2.03603181	    -11.39573788	     36.10385165	     16.67202725	     54.63003804
      0.16666670	     -1.12152712	      2.46758166	     -1.11393272	     -0.19335361	      1.24256637	      0.01426206	      7.00752399	     -2.96625644	     -2.25482803	      9.59523379	      0.16746842	     15.54300910	     12.08492610	     -7.29021840	      8.78274582	      2.99734225	    -13.13550547	     13.04649001	      0.22770421	      2.96400405	      0.56899358	     -7.29021840	     -1.91420836	     -5.07735320	     -3.92019249	      3.11537418	     -9.34829952	     33.21889050	     17.43521166	     59.51473624	     -1.61005860	    -11.38833944	     36.78427073	     16.56480160	     54.57148479
      0.18333330	     -1.08493491	      2.44426285	     -1.05674227	     -0.19427729	      1.24391842	      0.01422713	      6.85025184	     -2.93190589	     -2.28777312	      9.41834889	      0.16438120	     15.37253191	     12.17200841	     -7.30330978	      8.67664804	      2.95507103	    -13.18560790	     12.91014114	      0.22532447	      2.63938884	      0.92242122	     -7.30330978	     -1.93609784	     -5.02779311	     -3.85443036	      3.45627459	     -9.29842669	     33.83740332	     17.32995072	     59.66749850	     -1.23958429	    -11.29857352	     37.48348608	     16.40504302	     54.56565021
      0.20000000	     -1.08947952	      2.42754262	     -1.05944247	     -0.19426359	      1.24113292	      0.01450824	      6.90241015	     -2.88375061	     -1.99062024	      9.34873399	      0.16316619	     15.45601071	     12.05322582	     -7.32099390	      8.65812262	      2.92221159	    -13.25051684	     12.83164413	      0.22395444	      2.51362085	      0.88897835	     -7.32099390	     -1.98343412	     -5.05758427	     -4.02465825	      3.70484531	     -9.14252974	     34.08226760	     17.42816099	     59.76262132	     -0.92457534	    -11.33742843	     37.94796445	     16.40819454	     54.79348355
      0.21666670	     -1.02654697	      2.42036137	     -0.93046428	     -0.19265111	      1.23988435	      0.01383472	      6.77217332	     -2.88476872	     -2.06882497	      9.27898252	      0.16194880	     15.64194426	     12.17197205	     -7.33998546	      8.57462584	      2.93737980	    -13.03085359	     12.84064023	      0.22411145	      2.82067375	      1.12702795	     -7.33998546	     -1.97994489	     -5.00707507	     -4.17529892	      3.93508110	     -9.02776163	     34.33905127	     17.39460882	     59.93741598	     -0.59392029	    -11.36124564	     38.70230945	     16.35426574	     55.01141047
      0.23333330	     -1.04778520	      2.41708634	     -0.97599761	     -0.19030787	      1.24446613	      0.01355796	      6.71820953	     -2.94516162	     -2.05529907	      9.23872638	      0.16124619	     15.64233912	     12.18608186	     -7.34015433	      8.54481668	      2.92060911	    -13.03857914	     12.79491507	      0.22331340	      2.80535715	      1.15898632	     -7.34015433	     -1.80784389	     -4.95789892	     -4.24704193	      4.09749838	     -8.90973216	     34.35875407	     17.47341764	     59.94706137	     -0.31616313	    -11.36700627	     38.72599304	     16.41948799	     55.00745088
      0.25000000	     -0.92922602	      2.43203365	     -0.97714988	     -0.19013161	      1.24163818	      0.01354639	      6.50646190	     -2.98499640	     -1.99249203	      9.03859402	      0.15775323	     15.55652508	     12.22403913	     -7.35851619	      8.29406052	      2.89327757	    -13.31568289	     12.61612698	      0.22019295	      2.90389859	      1.55696288	     -7.35851619	     -1.87105960	     -4.95655976	     -4.28675282	      4.38615600	     -8.87332619	     35.23678102	     17.56939121	     61.11425086	      0.24612048	    -11.68492859	     42.02917257	     16.37032726	     54.76465910
      0.26666670	     -0.98344338	      2.45153347	     -0.90043078	     -0.18907878	      1.24877656	      0.01281476	      6.46094058	     -3.03331072	     -2.09891417	      8.89431391	      0.15523506	     15.04824614	     12.24500562	     -7.35970952	      8.13822135	      2.90633459	    -13.43214229	     12.38991101	      0.21624474	      2.32664306	      1.66539418	     -7.35970952	     -1.73460529	     -4.91765381	     -4.46607411	      4.50473559	     -8.71462838	     35.17015887	     17.72169393	     61.10810462	      0.49092105	    -11.71965305	     42.09200800	     16.45435604	     54.69715633
      0.28333330	     -0.82077408	      2.47833829	     -0.90208124	     -0.18887981	      1.25115685	      0.01324103	      6.06162869	     -3.11345992	     -2.16821149	      8.51500434	      0.14861486	     14.48818846	     12.20026845	     -7.37418292	      7.68261622	      2.97667292	    -13.77769513	     11.97397738	      0.20898533	      1.55956267	      1.55989605	     -7.37418292	     -1.85903201	     -4.90329997	     -4.60103444	      4.53521969	     -8.53951531	     34.46575429	     18.13199811	     61.03844589	      0.65272000	    -11.79203031	     41.93557356	     16.72175018	     54.92547433
      0.30000000	     -0.78263909	      2.51716301	     -1.02242908	     -0.18891216	      1.24777889	      0.01317889	      5.90213404	     -3.16012812	     -2.27600568	      8.25016730	      0.14399258	     14.26697241	     12.28551184	     -7.38150652	      7.46187176	      3.00933843	    -14.18872133	     11.64808306	      0.20329740	      1.20332724	      1.71638807	     -7.38150652	     -1.91277120	     -4.87100060	     -4.58374625	      4.63051264	     -8.34955957	     32.82479259	     18.58460277	     62.20727218	      1.01863982	    -11.86060128	     41.73026811	     16.91372375	     54.93848031
